<svg width="32" height="32" viewBox="0 0 32 32" fill="none" xmlns="http://www.w3.org/2000/svg">
  <!-- Background circle with soft green gradient -->
  <circle cx="16" cy="16" r="16" fill="url(#gradient)"/>
  
  <!-- Gradient definition -->
  <defs>
    <linearGradient id="gradient" x1="0%" y1="0%" x2="100%" y2="100%">
      <stop offset="0%" style="stop-color:#4ade80;stop-opacity:1" />
      <stop offset="100%" style="stop-color:#22c55e;stop-opacity:1" />
    </linearGradient>
  </defs>
  
  <!-- Heart symbol representing care and compassion -->
  <path d="M16 26c-1.1 0-2-.9-2-2 0-1.1.9-2 2-2s2 .9 2 2c0 1.1-.9 2-2 2z" fill="white" opacity="0.9"/>
  
  <!-- Main heart shape -->
  <path d="M16 24c-1.1 0-2-.9-2-2 0-1.1.9-2 2-2s2 .9 2 2c0 1.1-.9 2-2 2z" fill="white"/>
  
  <!-- Heart outline -->
  <path d="M16 6c-2.2 0-4 1.8-4 4 0 1.1.4 2.1 1.1 2.8L16 16l2.9-3.2c.7-.7 1.1-1.7 1.1-2.8 0-2.2-1.8-4-4-4z" fill="none" stroke="white" stroke-width="1.5" stroke-linecap="round" stroke-linejoin="round"/>
  
  <!-- Small decorative dots representing growth/wellness -->
  <circle cx="8" cy="12" r="1.5" fill="white" opacity="0.7"/>
  <circle cx="24" cy="12" r="1.5" fill="white" opacity="0.7"/>
  <circle cx="12" cy="20" r="1" fill="white" opacity="0.5"/>
  <circle cx="20" cy="20" r="1" fill="white" opacity="0.5"/>
</svg>
